<?xml version="1.0" encoding="UTF-8" standalone="no"?><svg xmlns="http://www.w3.org/2000/svg" xmlns:xlink="http://www.w3.org/1999/xlink" contentScriptType="application/ecmascript" contentStyleType="text/css" height="806px" preserveAspectRatio="none" style="width:453px;height:806px;" version="1.1" viewBox="0 0 453 806" width="453px" zoomAndPan="magnify"><defs><filter height="300%" id="f1bzt66uaohgue" width="300%" x="-1" y="-1"><feGaussianBlur result="blurOut" stdDeviation="2.0"/><feColorMatrix in="blurOut" result="blurOut2" type="matrix" values="0 0 0 0 0 0 0 0 0 0 0 0 0 0 0 0 0 0 .4 0"/><feOffset dx="4.0" dy="4.0" in="blurOut2" result="blurOut3"/><feBlend in="SourceGraphic" in2="blurOut3" mode="normal"/></filter></defs><g><text fill="#000000" font-family="sans-serif" font-size="18" lengthAdjust="spacingAndGlyphs" textLength="149" x="163" y="16.708">User ER diagram</text><!--cluster ext--><path d="M22,54.9531 C22,44.9531 231.5,44.9531 231.5,44.9531 C231.5,44.9531 441,44.9531 441,54.9531 L441,784.9531 C441,794.9531 231.5,794.9531 231.5,794.9531 C231.5,794.9531 22,794.9531 22,784.9531 L22,54.9531 " fill="#FFFFFF" filter="url(#f1bzt66uaohgue)" style="stroke: #000000; stroke-width: 1.5;"/><path d="M22,54.9531 C22,64.9531 231.5,64.9531 231.5,64.9531 C231.5,64.9531 441,64.9531 441,54.9531 " fill="none" style="stroke: #000000; stroke-width: 1.5;"/><text fill="#000000" font-family="sans-serif" font-size="14" font-weight="bold" lengthAdjust="spacingAndGlyphs" textLength="53" x="205" y="78.9482">MySQL</text><!--class user--><rect fill="#FEFECE" filter="url(#f1bzt66uaohgue)" height="112.0234" id="user" style="stroke: #A80036; stroke-width: 1.5;" width="191" x="87.5" y="94.9531"/><ellipse cx="164.75" cy="110.9531" fill="#FFAA00" rx="11" ry="11" style="stroke: #A80036; stroke-width: 1.0;"/><path d="M160.7813,103.0625 L161.2188,101.7656 Q165.2969,102.4531 168.7188,103.7344 L168.0625,105.2031 Q164.1875,103.6719 160.7813,103.0625 Z M165.9375,115.7031 L172.5625,115.7031 L172.5625,116.8594 L156.9375,116.8594 L156.9375,115.7031 L163.5625,115.7031 L163.5625,111.2813 L158.4688,111.2813 L158.4688,110.1406 L163.5625,110.1406 L163.5625,106.4844 L157.2813,106.4844 L157.2813,105.3281 L172.2188,105.3281 L172.2188,106.4844 L165.9375,106.4844 L165.9375,110.1406 L171.0313,110.1406 L171.0313,111.2813 L165.9375,111.2813 L165.9375,115.7031 Z "/><text fill="#000000" font-family="sans-serif" font-size="12" lengthAdjust="spacingAndGlyphs" textLength="28" x="185.25" y="115.1074">user</text><line style="stroke: #A80036; stroke-width: 1.5;" x1="88.5" x2="277.5" y1="126.9531" y2="126.9531"/><text fill="#000000" font-family="sans-serif" font-size="11" lengthAdjust="spacingAndGlyphs" textLength="77" x="93.5" y="141.1636">+user_id [PK]</text><line style="stroke: #A80036; stroke-width: 1.0;" x1="88.5" x2="277.5" y1="147.7578" y2="147.7578"/><text fill="#000000" font-family="sans-serif" font-size="11" lengthAdjust="spacingAndGlyphs" textLength="119" x="93.5" y="161.9683">#encoded_password</text><text fill="#000000" font-family="sans-serif" font-size="11" lengthAdjust="spacingAndGlyphs" textLength="64" x="93.5" y="174.7729">user_name</text><text fill="#000000" font-family="sans-serif" font-size="11" lengthAdjust="spacingAndGlyphs" textLength="179" x="93.5" y="187.5776">extended_authentication_id [FK]</text><text fill="#000000" font-family="sans-serif" font-size="11" lengthAdjust="spacingAndGlyphs" textLength="134" x="93.5" y="200.3823">remaining_ticket_id [FK]</text><!--class extended_authentication--><rect fill="#FEFECE" filter="url(#f1bzt66uaohgue)" height="73.6094" id="extended_authentication" style="stroke: #A80036; stroke-width: 1.5;" width="192" x="38" y="558.9531"/><ellipse cx="54.35" cy="574.9531" fill="#FFAA00" rx="11" ry="11" style="stroke: #A80036; stroke-width: 1.0;"/><path d="M54.7875,572.4844 L54.7875,579 L55.9125,579 C56.3656,579 56.5063,579.0313 56.6625,579.1563 C56.8969,579.3281 57.0219,579.5781 57.0219,579.8594 C57.0219,580.1406 56.8813,580.4375 56.6156,580.5781 C56.5063,580.6563 56.2406,580.7031 55.9125,580.7031 L51.975,580.7031 C51.5844,580.7031 51.3656,580.6563 51.2094,580.5313 C50.9906,580.375 50.85,580.1094 50.85,579.8594 C50.85,579.5625 51.0063,579.2813 51.2563,579.125 C51.4125,579.0156 51.5375,579 51.975,579 L53.0844,579 L53.0844,572.4844 L51.2563,572.4844 L51.2563,574.0781 C51.2563,574.5313 51.225,574.6719 51.1156,574.8438 C50.9438,575.0625 50.6938,575.1875 50.4125,575.1875 C50.1313,575.1875 49.8344,575.0469 49.6781,574.7813 C49.6,574.6406 49.5688,574.4688 49.5688,574.0781 L49.5688,570.7969 L58.3344,570.7969 L58.3344,574.0781 C58.3344,574.5469 58.3188,574.6719 58.1781,574.8438 C58.0063,575.0625 57.7563,575.1875 57.4906,575.1875 C57.1938,575.1875 56.9125,575.0313 56.7563,574.7813 C56.6625,574.6406 56.6313,574.4688 56.6313,574.0781 L56.6313,572.4844 Z "/><text fill="#000000" font-family="sans-serif" font-size="12" lengthAdjust="spacingAndGlyphs" textLength="157" x="68.65" y="579.1074">extended_authentication</text><line style="stroke: #A80036; stroke-width: 1.5;" x1="39" x2="229" y1="590.9531" y2="590.9531"/><text fill="#000000" font-family="sans-serif" font-size="11" lengthAdjust="spacingAndGlyphs" textLength="180" x="44" y="605.1636">extended_authentication_id [PK]</text><line style="stroke: #A80036; stroke-width: 1.0;" x1="39" x2="229" y1="611.7578" y2="611.7578"/><text fill="#000000" font-family="sans-serif" font-size="11" lengthAdjust="spacingAndGlyphs" textLength="174" x="44" y="625.9683">extended_authentication_value</text><!--class user_has_role--><rect fill="#FEFECE" filter="url(#f1bzt66uaohgue)" height="73.6094" id="user_has_role" style="stroke: #A80036; stroke-width: 1.5;" width="119" x="123.5" y="272.9531"/><ellipse cx="138.5" cy="288.9531" fill="#FFAA00" rx="11" ry="11" style="stroke: #A80036; stroke-width: 1.0;"/><path d="M138.9375,286.4844 L138.9375,293 L140.0625,293 C140.5156,293 140.6563,293.0313 140.8125,293.1563 C141.0469,293.3281 141.1719,293.5781 141.1719,293.8594 C141.1719,294.1406 141.0313,294.4375 140.7656,294.5781 C140.6563,294.6563 140.3906,294.7031 140.0625,294.7031 L136.125,294.7031 C135.7344,294.7031 135.5156,294.6563 135.3594,294.5313 C135.1406,294.375 135,294.1094 135,293.8594 C135,293.5625 135.1563,293.2813 135.4063,293.125 C135.5625,293.0156 135.6875,293 136.125,293 L137.2344,293 L137.2344,286.4844 L135.4063,286.4844 L135.4063,288.0781 C135.4063,288.5313 135.375,288.6719 135.2656,288.8438 C135.0938,289.0625 134.8438,289.1875 134.5625,289.1875 C134.2813,289.1875 133.9844,289.0469 133.8281,288.7813 C133.75,288.6406 133.7188,288.4688 133.7188,288.0781 L133.7188,284.7969 L142.4844,284.7969 L142.4844,288.0781 C142.4844,288.5469 142.4688,288.6719 142.3281,288.8438 C142.1563,289.0625 141.9063,289.1875 141.6406,289.1875 C141.3438,289.1875 141.0625,289.0313 140.9063,288.7813 C140.8125,288.6406 140.7813,288.4688 140.7813,288.0781 L140.7813,286.4844 Z "/><text fill="#000000" font-family="sans-serif" font-size="12" lengthAdjust="spacingAndGlyphs" textLength="87" x="152.5" y="293.1074">user_has_role</text><line style="stroke: #A80036; stroke-width: 1.5;" x1="124.5" x2="241.5" y1="304.9531" y2="304.9531"/><text fill="#000000" font-family="sans-serif" font-size="11" lengthAdjust="spacingAndGlyphs" textLength="68" x="129.5" y="319.1636">user_id [PK]</text><text fill="#000000" font-family="sans-serif" font-size="11" lengthAdjust="spacingAndGlyphs" textLength="64" x="129.5" y="331.9683">role_id [PK]</text><line style="stroke: #A80036; stroke-width: 1.0;" x1="124.5" x2="241.5" y1="338.5625" y2="338.5625"/><!--class role_has_permission--><rect fill="#FEFECE" filter="url(#f1bzt66uaohgue)" height="73.6094" id="role_has_permission" style="stroke: #A80036; stroke-width: 1.5;" width="159" x="265.5" y="558.9531"/><ellipse cx="280.5" cy="574.9531" fill="#FFAA00" rx="11" ry="11" style="stroke: #A80036; stroke-width: 1.0;"/><path d="M280.9375,572.4844 L280.9375,579 L282.0625,579 C282.5156,579 282.6563,579.0313 282.8125,579.1563 C283.0469,579.3281 283.1719,579.5781 283.1719,579.8594 C283.1719,580.1406 283.0313,580.4375 282.7656,580.5781 C282.6563,580.6563 282.3906,580.7031 282.0625,580.7031 L278.125,580.7031 C277.7344,580.7031 277.5156,580.6563 277.3594,580.5313 C277.1406,580.375 277,580.1094 277,579.8594 C277,579.5625 277.1563,579.2813 277.4063,579.125 C277.5625,579.0156 277.6875,579 278.125,579 L279.2344,579 L279.2344,572.4844 L277.4063,572.4844 L277.4063,574.0781 C277.4063,574.5313 277.375,574.6719 277.2656,574.8438 C277.0938,575.0625 276.8438,575.1875 276.5625,575.1875 C276.2813,575.1875 275.9844,575.0469 275.8281,574.7813 C275.75,574.6406 275.7188,574.4688 275.7188,574.0781 L275.7188,570.7969 L284.4844,570.7969 L284.4844,574.0781 C284.4844,574.5469 284.4688,574.6719 284.3281,574.8438 C284.1563,575.0625 283.9063,575.1875 283.6406,575.1875 C283.3438,575.1875 283.0625,575.0313 282.9063,574.7813 C282.8125,574.6406 282.7813,574.4688 282.7813,574.0781 L282.7813,572.4844 Z "/><text fill="#000000" font-family="sans-serif" font-size="12" lengthAdjust="spacingAndGlyphs" textLength="127" x="294.5" y="579.1074">role_has_permission</text><line style="stroke: #A80036; stroke-width: 1.5;" x1="266.5" x2="423.5" y1="590.9531" y2="590.9531"/><text fill="#000000" font-family="sans-serif" font-size="11" lengthAdjust="spacingAndGlyphs" textLength="64" x="271.5" y="605.1636">role_id [PK]</text><text fill="#000000" font-family="sans-serif" font-size="11" lengthAdjust="spacingAndGlyphs" textLength="106" x="271.5" y="617.9683">permission_id [PK]</text><line style="stroke: #A80036; stroke-width: 1.0;" x1="266.5" x2="423.5" y1="624.5625" y2="624.5625"/><!--class permission--><rect fill="#FEFECE" filter="url(#f1bzt66uaohgue)" height="86.4141" id="permission" style="stroke: #A80036; stroke-width: 1.5;" width="118" x="286" y="692.9531"/><ellipse cx="309.1" cy="708.9531" fill="#FFAA00" rx="11" ry="11" style="stroke: #A80036; stroke-width: 1.0;"/><path d="M309.5375,706.4844 L309.5375,713 L310.6625,713 C311.1156,713 311.2563,713.0313 311.4125,713.1563 C311.6469,713.3281 311.7719,713.5781 311.7719,713.8594 C311.7719,714.1406 311.6313,714.4375 311.3656,714.5781 C311.2563,714.6563 310.9906,714.7031 310.6625,714.7031 L306.725,714.7031 C306.3344,714.7031 306.1156,714.6563 305.9594,714.5313 C305.7406,714.375 305.6,714.1094 305.6,713.8594 C305.6,713.5625 305.7563,713.2813 306.0063,713.125 C306.1625,713.0156 306.2875,713 306.725,713 L307.8344,713 L307.8344,706.4844 L306.0063,706.4844 L306.0063,708.0781 C306.0063,708.5313 305.975,708.6719 305.8656,708.8438 C305.6938,709.0625 305.4438,709.1875 305.1625,709.1875 C304.8813,709.1875 304.5844,709.0469 304.4281,708.7813 C304.35,708.6406 304.3188,708.4688 304.3188,708.0781 L304.3188,704.7969 L313.0844,704.7969 L313.0844,708.0781 C313.0844,708.5469 313.0688,708.6719 312.9281,708.8438 C312.7563,709.0625 312.5063,709.1875 312.2406,709.1875 C311.9438,709.1875 311.6625,709.0313 311.5063,708.7813 C311.4125,708.6406 311.3813,708.4688 311.3813,708.0781 L311.3813,706.4844 Z "/><text fill="#000000" font-family="sans-serif" font-size="12" lengthAdjust="spacingAndGlyphs" textLength="68" x="324.9" y="713.1074">permission</text><line style="stroke: #A80036; stroke-width: 1.5;" x1="287" x2="403" y1="724.9531" y2="724.9531"/><text fill="#000000" font-family="sans-serif" font-size="11" lengthAdjust="spacingAndGlyphs" textLength="106" x="292" y="739.1636">permission_id [PK]</text><line style="stroke: #A80036; stroke-width: 1.0;" x1="287" x2="403" y1="745.7578" y2="745.7578"/><text fill="#000000" font-family="sans-serif" font-size="11" lengthAdjust="spacingAndGlyphs" textLength="97" x="292" y="759.9683">permission_alias</text><text fill="#000000" font-family="sans-serif" font-size="11" lengthAdjust="spacingAndGlyphs" textLength="102" x="292" y="772.7729">permission_name</text><!--class role--><rect fill="#FEFECE" filter="url(#f1bzt66uaohgue)" height="86.4141" id="role" style="stroke: #A80036; stroke-width: 1.5;" width="76" x="226" y="412.9531"/><ellipse cx="250" cy="428.9531" fill="#FFAA00" rx="11" ry="11" style="stroke: #A80036; stroke-width: 1.0;"/><path d="M250.4375,426.4844 L250.4375,433 L251.5625,433 C252.0156,433 252.1563,433.0313 252.3125,433.1563 C252.5469,433.3281 252.6719,433.5781 252.6719,433.8594 C252.6719,434.1406 252.5313,434.4375 252.2656,434.5781 C252.1563,434.6563 251.8906,434.7031 251.5625,434.7031 L247.625,434.7031 C247.2344,434.7031 247.0156,434.6563 246.8594,434.5313 C246.6406,434.375 246.5,434.1094 246.5,433.8594 C246.5,433.5625 246.6563,433.2813 246.9063,433.125 C247.0625,433.0156 247.1875,433 247.625,433 L248.7344,433 L248.7344,426.4844 L246.9063,426.4844 L246.9063,428.0781 C246.9063,428.5313 246.875,428.6719 246.7656,428.8438 C246.5938,429.0625 246.3438,429.1875 246.0625,429.1875 C245.7813,429.1875 245.4844,429.0469 245.3281,428.7813 C245.25,428.6406 245.2188,428.4688 245.2188,428.0781 L245.2188,424.7969 L253.9844,424.7969 L253.9844,428.0781 C253.9844,428.5469 253.9688,428.6719 253.8281,428.8438 C253.6563,429.0625 253.4063,429.1875 253.1406,429.1875 C252.8438,429.1875 252.5625,429.0313 252.4063,428.7813 C252.3125,428.6406 252.2813,428.4688 252.2813,428.0781 L252.2813,426.4844 Z "/><text fill="#000000" font-family="sans-serif" font-size="12" lengthAdjust="spacingAndGlyphs" textLength="24" x="266" y="433.1074">role</text><line style="stroke: #A80036; stroke-width: 1.5;" x1="227" x2="301" y1="444.9531" y2="444.9531"/><text fill="#000000" font-family="sans-serif" font-size="11" lengthAdjust="spacingAndGlyphs" textLength="64" x="232" y="459.1636">role_id [PK]</text><line style="stroke: #A80036; stroke-width: 1.0;" x1="227" x2="301" y1="465.7578" y2="465.7578"/><text fill="#000000" font-family="sans-serif" font-size="11" lengthAdjust="spacingAndGlyphs" textLength="55" x="232" y="479.9683">role_alias</text><text fill="#000000" font-family="sans-serif" font-size="11" lengthAdjust="spacingAndGlyphs" textLength="60" x="232" y="492.7729">role_name</text><!--class remaining_ticket--><rect fill="#FEFECE" filter="url(#f1bzt66uaohgue)" height="86.4141" id="remaining_ticket" style="stroke: #A80036; stroke-width: 1.5;" width="147" x="277.5" y="266.9531"/><ellipse cx="297.9" cy="282.9531" fill="#FFAA00" rx="11" ry="11" style="stroke: #A80036; stroke-width: 1.0;"/><path d="M298.3375,280.4844 L298.3375,287 L299.4625,287 C299.9156,287 300.0563,287.0313 300.2125,287.1563 C300.4469,287.3281 300.5719,287.5781 300.5719,287.8594 C300.5719,288.1406 300.4313,288.4375 300.1656,288.5781 C300.0563,288.6563 299.7906,288.7031 299.4625,288.7031 L295.525,288.7031 C295.1344,288.7031 294.9156,288.6563 294.7594,288.5313 C294.5406,288.375 294.4,288.1094 294.4,287.8594 C294.4,287.5625 294.5563,287.2813 294.8063,287.125 C294.9625,287.0156 295.0875,287 295.525,287 L296.6344,287 L296.6344,280.4844 L294.8063,280.4844 L294.8063,282.0781 C294.8063,282.5313 294.775,282.6719 294.6656,282.8438 C294.4938,283.0625 294.2438,283.1875 293.9625,283.1875 C293.6813,283.1875 293.3844,283.0469 293.2281,282.7813 C293.15,282.6406 293.1188,282.4688 293.1188,282.0781 L293.1188,278.7969 L301.8844,278.7969 L301.8844,282.0781 C301.8844,282.5469 301.8688,282.6719 301.7281,282.8438 C301.5563,283.0625 301.3063,283.1875 301.0406,283.1875 C300.7438,283.1875 300.4625,283.0313 300.3063,282.7813 C300.2125,282.6406 300.1813,282.4688 300.1813,282.0781 L300.1813,280.4844 Z "/><text fill="#000000" font-family="sans-serif" font-size="12" lengthAdjust="spacingAndGlyphs" textLength="103" x="313.1" y="287.1074">remaining_ticket</text><line style="stroke: #A80036; stroke-width: 1.5;" x1="278.5" x2="423.5" y1="298.9531" y2="298.9531"/><text fill="#000000" font-family="sans-serif" font-size="11" lengthAdjust="spacingAndGlyphs" textLength="135" x="283.5" y="313.1636">remaining_ticket_id [PK]</text><line style="stroke: #A80036; stroke-width: 1.0;" x1="278.5" x2="423.5" y1="319.7578" y2="319.7578"/><text fill="#000000" font-family="sans-serif" font-size="11" lengthAdjust="spacingAndGlyphs" textLength="93" x="283.5" y="333.9683">remaining_dolce</text><text fill="#000000" font-family="sans-serif" font-size="11" lengthAdjust="spacingAndGlyphs" textLength="103" x="283.5" y="346.7729">remaining_barista</text><!--link user to extended_authentication--><path d="M136.599,207.0311 C124.179,225.0021 112.427,245.8031 106,266.9531 C74.9273,369.2101 104.1902,497.0911 122.222,558.5991 " fill="none" id="user-extended_authentication" style="stroke: #A80036; stroke-width: 1.0;"/><!--link user to user_has_role--><path d="M183,207.3051 C183,225.9691 183,246.5501 183,264.2831 " fill="none" id="user-user_has_role" style="stroke: #A80036; stroke-width: 1.0;"/><line style="stroke: #A80036; stroke-width: 1.0;" x1="183" x2="189" y1="264.7381" y2="272.7381"/><line style="stroke: #A80036; stroke-width: 1.0;" x1="183" x2="177" y1="264.7381" y2="272.7381"/><line style="stroke: #A80036; stroke-width: 1.0;" x1="183" x2="183" y1="264.7381" y2="272.7381"/><line style="stroke: #A80036; stroke-width: 1.0;" x1="187" x2="179" y1="262.7381" y2="262.7381"/><!--link user to remaining_ticket--><path d="M242.231,207.3051 C263.203,226.9041 286.437,248.6171 306.029,266.9271 " fill="none" id="user-remaining_ticket" style="stroke: #A80036; stroke-width: 1.0;"/><!--link user_has_role to role--><path d="M207.482,354.4771 C217.877,372.9561 229.95,394.4191 240.262,412.7521 " fill="none" id="user_has_role-role" style="stroke: #A80036; stroke-width: 1.0;"/><line style="stroke: #A80036; stroke-width: 1.0;" x1="207.3626" x2="198.2107" y1="354.2625" y2="350.232"/><line style="stroke: #A80036; stroke-width: 1.0;" x1="207.3626" x2="208.6693" y1="354.2625" y2="344.3482"/><line style="stroke: #A80036; stroke-width: 1.0;" x1="207.3626" x2="203.44" y1="354.2625" y2="347.2901"/><line style="stroke: #A80036; stroke-width: 1.0;" x1="204.857" x2="211.8294" y1="357.9668" y2="354.0443"/><!--link role to role_has_permission--><path d="M288.743,499.1071 C298.513,515.7531 309.733,534.8681 319.569,551.6261 " fill="none" id="role-role_has_permission" style="stroke: #A80036; stroke-width: 1.0;"/><line style="stroke: #A80036; stroke-width: 1.0;" x1="319.6424" x2="328.8665" y1="551.7508" y2="555.6129"/><line style="stroke: #A80036; stroke-width: 1.0;" x1="319.6424" x2="318.5175" y1="551.7508" y2="561.6873"/><line style="stroke: #A80036; stroke-width: 1.0;" x1="319.6424" x2="323.692" y1="551.7508" y2="558.6501"/><line style="stroke: #A80036; stroke-width: 1.0;" x1="322.0797" x2="315.1803" y1="548.0012" y2="552.0508"/><!--link role_has_permission to permission--><path d="M345,641.5571 C345,657.9291 345,676.4041 345,692.5751 " fill="none" id="role_has_permission-permission" style="stroke: #A80036; stroke-width: 1.0;"/><line style="stroke: #A80036; stroke-width: 1.0;" x1="345" x2="339" y1="641.2111" y2="633.2111"/><line style="stroke: #A80036; stroke-width: 1.0;" x1="345" x2="351" y1="641.2111" y2="633.2111"/><line style="stroke: #A80036; stroke-width: 1.0;" x1="345" x2="345" y1="641.2111" y2="633.2111"/><line style="stroke: #A80036; stroke-width: 1.0;" x1="341" x2="349" y1="643.2111" y2="643.2111"/><!--
@startuml
title User ER diagram
skinparam classAttributeIconSize 0

package "MySQL" as ext <<Database>> {
    entity user <<主,FFAA00)>> {
        + user_id [PK]
        - - -
        # encoded_password
        user_name
        extended_authentication_id [FK]
        remaining_ticket_id [FK]
    }
    
    entity extended_authentication <<T,FFAA00)>> {
        extended_authentication_id [PK]
        - - -
        extended_authentication_value
    }
    
    entity user_has_role <<T, FFAA00>> {
        user_id [PK]
        role_id [PK]
        - - -
    }
    
    entity role_has_permission <<T, FFAA00>> {
        role_id [PK]
        permission_id [PK]
        - - -
    }

    entity permission <<T, FFAA00>> {
        permission_id [PK]
        - - -
        permission_alias
        permission_name
    }
    
    entity role <<T, FFAA00>> {
        role_id [PK]
        - - - -
        role_alias
        role_name
    }
    
    entity remaining_ticket <<T, FFAA00>> {
        remaining_ticket_id [PK]
        - - - -
        remaining_dolce
        remaining_barista
    }
}

user -down- - - extended_authentication
user -down-|{ user_has_role
user -down- remaining_ticket
user_has_role }|-down- role
role -down-|{ role_has_permission
role_has_permission }|-down- permission


@enduml

PlantUML version 1.2018.06(Mon May 21 10:34:53 UTC 2018)
(GPL source distribution)
Java Runtime: Java(TM) SE Runtime Environment
JVM: Java HotSpot(TM) 64-Bit Server VM
Java Version: 1.7.0_25-b15
Operating System: Linux
Default Encoding: UTF-8
Language: en
Country: US
--></g></svg>